<svg width="20" height="20" viewBox="0 0 20 20" fill="none" xmlns="http://www.w3.org/2000/svg">
<g clip-path="url(#clip0_2_260)">
<g clip-path="url(#clip1_2_260)">
<g clip-path="url(#clip2_2_260)">
<path d="M9.99987 0C9.45133 0 8.91387 0.046031 8.38913 0.13081C8.61927 0.217457 8.90653 0.264141 9.29833 0.245421C10.6463 0.181276 11.4815 0.438088 10.5177 0.82384C9.55387 1.20955 9.73327 1.61907 10.1831 1.65114C10.6329 1.68321 11.6815 1.2032 12.0294 1.62542C12.3884 2.06127 11.6265 2.77619 12.0809 3.54854C12.7567 4.69805 10.445 4.96122 9.86087 5.82311C9.2974 6.65451 8.9796 7.545 9.6222 8.7386C10.2647 9.93227 10.4158 9.21127 11.5456 9.34207C13.7729 9.59987 13.1063 11.3437 15.8503 11.8897C16.9001 12.0986 16.1785 14.3791 14.3363 15.4782C12.5608 16.5372 13.1215 17.7521 10.5983 18.5623C9.992 18.7569 9.53073 18.6451 9.99993 17.9705C10.9101 16.6623 10.8311 15.2043 9.99993 14.5515C9.16887 13.8989 8.23713 13.7567 8.46187 12.7515C8.6866 11.7465 9.55647 11.3948 9.61833 10.4913C9.67807 9.61987 8.29553 6.65391 6.56762 7.24113C5.58066 7.57673 3.67178 6.32119 3.77276 4.67709C3.88989 2.76695 5.35303 2.47423 5.02446 1.33812C5.02348 1.33495 5.02475 1.33084 5.02446 1.32733C2.02284 3.05299 0 6.28944 0 10.0001C0 15.5229 4.47704 20 9.9998 20C15.5226 20 19.9996 15.5229 19.9996 10.0001C19.9996 4.47738 15.5226 0 9.99987 0Z" fill="#333333"/>
</g>
</g>
</g>
<defs>
<clipPath id="clip0_2_260">
<rect width="20" height="20" fill="white"/>
</clipPath>
<clipPath id="clip1_2_260">
<rect width="20" height="20" fill="white"/>
</clipPath>
<clipPath id="clip2_2_260">
<rect width="20" height="20" fill="white"/>
</clipPath>
</defs>
</svg>
